<?xml version="1.0" encoding="UTF-8"?>
<!-- Generator: Adobe Illustrator 19.2.0, SVG Export Plug-In . SVG Version: 6.00 Build 0)  -->
<svg version="1.1" id="Capa_1" xmlns="http://www.w3.org/2000/svg" xmlns:xlink="http://www.w3.org/1999/xlink" x="0px" y="0px" viewBox="0 0 250 116" style="enable-background:new 0 0 250 116;" xml:space="preserve">
<style type="text/css">
	.st0{fill:#D13239;}
	.st1{fill:#FFCE00;}
	.st2{fill:#2E2A25;}
</style>
<g>
	<g>
		<path class="st0" d="M67.6,10.3c14,4.3,33,6.1,52.3,13.9c20,8.1,62.5,36.1,12.8,37.4c12.3,3.1,48.8,8.4,52.3-4.3    c3.9-14.4-27.5-27.6-41.6-33.1C116.1,13.7,95.7,12.1,67.6,10.3z"/>
		<path class="st1" d="M124.2,60.5c-14.9-8.5-18.7-13.9-21.3-17.1C96.1,35.3,93,20.5,84.7,21c-4.7,0.2-9.1,5.9-7.5,12.8    C80.7,48.7,107.6,56.5,124.2,60.5z"/>
	</g>
	<circle class="st0" cx="62.5" cy="9.1" r="3"/>
</g>
<g>
	<path class="st2" d="M25.5,103.1H8.7c-3.1,0-4.6-1.2-4.5-3.7c0-0.6,0.1-1.3,0.3-2L7,88.2c1-3.8,3.4-5.7,7.3-5.7H31l-1.2,4.4H19   c-1.9,0-3.1,1-3.6,2.9l-1.6,6c-0.1,0.4-0.2,0.8-0.2,1.1c0,1.2,0.7,1.8,2.3,1.8h3.6l1-3.7h-2.1l1.2-4.4h9.4L25.5,103.1z"/>
	<path class="st2" d="M44.7,90.5c-1.1-0.2-2.2-0.3-3.4-0.3c-2,0-3.3,1.2-3.9,3.5l-2.5,9.4h-7.3l4.3-16.2h7.3l-0.1,0.5   c1.2-0.5,2.5-0.7,3.8-0.7c1.3,0,2.2,0,2.8,0.1L44.7,90.5z"/>
	<path class="st2" d="M61.7,103.1h-7.3l0.1-0.5c-1.2,0.4-2.7,0.7-4.7,0.7c-3.5,0-5.3-1.4-5.3-4.1c0-0.7,0.1-1.5,0.4-2.4l2.6-9.8h7.3   L52,97.4c-0.1,0.4-0.2,0.7-0.2,1.1c0,0.9,0.5,1.4,1.5,1.4c1.3,0,2.1-0.8,2.6-2.4l2.8-10.4H66L61.7,103.1z"/>
	<path class="st2" d="M85.6,95.7c-1.3,5-5.1,7.6-11.2,7.6c-1.3,0-2.4-0.2-3.3-0.7l-1.6,5.8h-7.3L68,87h7.3l-0.2,0.6   c1.2-0.5,2.4-0.7,3.7-0.7c5,0,7.5,1.7,7.5,5.1c0,0.7-0.1,1.6-0.4,2.4L85.6,95.7z M77.7,92.7c0.1-0.4,0.2-0.7,0.2-1.1   c0-0.9-0.5-1.4-1.5-1.4c-1.3,0-2.1,0.8-2.6,2.4l-1.3,4.7c-0.1,0.4-0.2,0.7-0.2,1.1c0,0.9,0.5,1.4,1.5,1.4c1.3,0,2.1-0.8,2.6-2.4   L77.7,92.7z"/>
	<path class="st2" d="M108.5,95.7c-1.4,5-5.6,7.6-12.8,7.6c-6.1,0-9-1.8-9-5.4c0-0.6,0.1-1.4,0.3-2.1l0.3-1.3   c1.4-5,5.6-7.6,12.8-7.6c6,0,9,1.8,9,5.3c0,0.7-0.1,1.4-0.3,2.2L108.5,95.7z M99.3,97.3l1.3-4.7c0.1-0.4,0.2-0.7,0.2-1.1   c0-0.9-0.5-1.4-1.5-1.4c-1.3,0-2.1,0.8-2.6,2.4l-1.3,4.7c-0.1,0.4-0.2,0.8-0.2,1.1c0,0.9,0.5,1.4,1.5,1.4   C98,99.8,98.9,99,99.3,97.3z"/>
	<path class="st0" d="M132.2,86.9l-9.8,16.2h-9.1l-1.1-16.2h7.3l0.1,9.3l5.1-9.3H132.2z"/>
	<path class="st0" d="M136.7,103.1h-7.3l4.3-16.2h7.3L136.7,103.1z M141.3,85.8H134l0.9-3.3h7.3L141.3,85.8z"/>
	<path class="st0" d="M161,97.3c-1.8,3.9-5.9,5.9-12.1,5.9c-6,0-9-1.8-9-5.3c0-0.7,0.1-1.4,0.3-2.2l0.3-1.3c1.4-5,5.6-7.6,12.8-7.6   c6,0,9,1.8,9,5.3c0,0.2,0,0.4,0,0.5h-8.6c0.1-0.4,0.2-0.8,0.2-1.1c0-0.9-0.5-1.4-1.4-1.4c-1.3,0-2.1,0.8-2.6,2.4l-1.3,4.7   c-0.1,0.4-0.2,0.8-0.2,1.1c0,0.9,0.5,1.4,1.5,1.4c1.3,0,2.1-0.8,2.6-2.4H161z"/>
	<path class="st0" d="M178.2,91.3h-3.6l-3.1,11.7h-7.4l3.1-11.7h-3.6l1.2-4.4h3.6l1.2-4.4h7.3l-1.2,4.4h3.6L178.2,91.3z"/>
	<path class="st0" d="M199.7,95.7c-1.4,5-5.6,7.6-12.8,7.6c-6.1,0-9-1.8-9-5.4c0-0.6,0.1-1.4,0.3-2.1l0.3-1.3   c1.4-5,5.6-7.6,12.8-7.6c6,0,9,1.8,9,5.3c0,0.7-0.1,1.4-0.3,2.2L199.7,95.7z M190.4,97.3l1.3-4.7c0.1-0.4,0.2-0.7,0.2-1.1   c0-0.9-0.5-1.4-1.5-1.4c-1.3,0-2.1,0.8-2.6,2.4l-1.3,4.7c-0.1,0.4-0.2,0.8-0.2,1.1c0,0.9,0.5,1.4,1.5,1.4   C189.2,99.8,190,99,190.4,97.3z"/>
	<path class="st0" d="M216.3,90.5c-1.1-0.2-2.2-0.3-3.4-0.3c-2,0-3.3,1.2-3.9,3.5l-2.5,9.4h-7.3l4.3-16.2h7.3l-0.1,0.5   c1.2-0.5,2.5-0.7,3.8-0.7c1.3,0,2.2,0,2.8,0.1L216.3,90.5z"/>
	<path class="st0" d="M221.7,103.1h-7.3l4.3-16.2h7.3L221.7,103.1z M226.3,85.8H219l0.9-3.3h7.3L226.3,85.8z"/>
	<path class="st0" d="M243.1,103.1h-7.3l0.2-0.6c-1.2,0.5-2.4,0.7-3.8,0.7c-5.3,0-7.9-1.2-7.9-3.6c0-0.3,0.1-0.7,0.2-1.1   c0.5-1.8,1.6-3,3.5-3.8c1.1-0.4,2.9-0.8,5.4-1c2.4-0.2,4.3-0.6,5.4-1.1l0.1-0.4c0.1-0.2,0.1-0.5,0.1-0.7c0-0.9-0.6-1.3-1.8-1.3   c-1.5,0-2.4,0.7-2.9,2h-7.7c1.9-3.6,5.7-5.5,11.5-5.5c5.3,0,8,1.6,8,4.9c0,0.7-0.1,1.4-0.3,2.2L243.1,103.1z M237,98.3l0.5-2.1   c-0.4,0.2-1.1,0.3-1.9,0.4c-0.9,0.1-1.5,0.2-2,0.4c-0.7,0.3-1.1,0.7-1.3,1.3c0,0.2-0.1,0.3-0.1,0.4c0,0.7,0.6,1.1,1.9,1.1   C235.9,99.8,236.8,99.3,237,98.3z"/>
</g>
<rect x="74.3" y="105.8" class="st0" width="168.1" height="1"/>
</svg>